# xmcd
#
# Track frame offsets:
#	150
#	19934
#	40710
#	59892
#	81391
#	98584
#	119938
#	141494
#	145941
#	169787
#	197047
#	216000
#	228608
#	250325
#
# Disc length: 3572 seconds
#
# Revision: 1
# Processed by: cddbd v1.5.2PL0 Copyright (c) Steve Scherf et al.
# Submitted via: audiograbber 1.83.01
#
DISCID=da0df20e
DTITLE=Mint Condition - E-Life
DYEAR=2008
DGENRE=R&B
TTITLE0=Baby Boy Baby Girl feat. Anthony Hamilton
TTITLE1=Somethin' feat. Phonte from Little Brother
TTITLE2=Just Can't Believe
TTITLE3=Goldigger
TTITLE4=Gratitude
TTITLE5=Nothing Left to Say
TTITLE6=Right Here
TTITLE7=E-Life
TTITLE8=Why Do We Try feat. Ali Shaheed Muhammad from A Tribe Called Quest
TTITLE9=Back and Forth
TTITLE10=Moan
TTITLE11=Queen of Come Here Go Away
TTITLE12=Wish I Could Love You (Pimp Juice)
TTITLE13=Baby Boy Baby Girl (Single Version)
EXTD=
EXTT0=
EXTT1=
EXTT2=
EXTT3=
EXTT4=
EXTT5=
EXTT6=
EXTT7=
EXTT8=
EXTT9=
EXTT10=
EXTT11=
EXTT12=
EXTT13=
PLAYORDER=
